<?xml version="1.0" encoding="utf-8"?>
<!-- Generator: Adobe Illustrator 17.1.0, SVG Export Plug-In . SVG Version: 6.00 Build 0)  -->
<!DOCTYPE svg PUBLIC "-//W3C//DTD SVG 1.1//EN" "http://www.w3.org/Graphics/SVG/1.1/DTD/svg11.dtd">
<svg version="1.1" id="Layer_5" xmlns="http://www.w3.org/2000/svg" xmlns:xlink="http://www.w3.org/1999/xlink" x="0px" y="0px"
	 viewBox="0 0 500 500" enable-background="new 0 0 500 500" xml:space="preserve">
<g>
	<path fill="#E1E1E1" d="M371,0.7l-94.1,94.1l127.8,127.8l94.1-94.1L371,0.7z M416.9,140.8c-2.6,2.6-7.3,3.1-10.1,0.2l-19.4-19.4
		l-18.9,18.9c-2.9,2.9-7.6,3.5-10.1,0.9l-0.1-0.1c-2.6-2.6-1.9-7.3,0.9-10.1l18.9-18.9l-19.4-19.4c-2.9-2.9-2.4-7.6,0.2-10.1
		l0.1-0.1c2.6-2.6,7.3-3.1,10.1-0.2l19.4,19.4l18.9-18.9c2.9-2.9,7.6-3.5,10.1-0.9l0.1,0.1c2.6,2.6,1.9,7.3-0.9,10.1l-18.9,18.9
		l19.4,19.4C420.1,133.4,419.6,138.1,416.9,140.8L416.9,140.8z"/>
	<path fill="#E1E1E1" d="M0.3,371.4l127.8,127.8l266.1-266.1L266.4,105.3L0.3,371.4z M64.6,376.8c2.6-2.6,6.3-2.1,9.2,0.7l48.2,48.2
		c2.9,2.9,3.3,6.6,0.7,9.2l-0.1,0.1c-2.6,2.6-7.1,2.9-9.9,0l-48.2-48.2C61.7,384,62,379.5,64.6,376.8L64.6,376.8z"/>
	<path fill="#FFFFFF" d="M416.6,92.2c2.9-2.9,3.5-7.6,0.9-10.1l-0.1-0.1c-2.6-2.6-7.3-1.9-10.1,0.9l-18.9,18.9l9.3,9.3L416.6,92.2z"
		/>
	<path fill="#FFFFFF" d="M359.1,131.1c-2.9,2.9-3.5,7.6-0.9,10.1l0.1,0.1c2.6,2.6,7.3,1.9,10.1-0.9l18.9-18.9l-9.3-9.3L359.1,131.1z
		"/>
	<path fill="#FFFFFF" d="M369,82.3c-2.9-2.9-7.6-2.4-10.1,0.2l-0.1,0.1c-2.6,2.6-3.1,7.3-0.2,10.1l19.4,19.4l10.5-10.5L369,82.3z"/>
	<path fill="#FFFFFF" d="M417.2,130.5l-19.4-19.4l-10.5,10.5l19.4,19.4c2.9,2.9,7.6,2.4,10.1-0.2l0.1-0.1
		C419.6,138.1,420.1,133.4,417.2,130.5z"/>
	
		<rect x="380.5" y="105.1" transform="matrix(0.7071 -0.7071 0.7071 0.7071 34.6424 306.9763)" fill="#FFFFFF" width="14.8" height="13.1"/>
	<path fill="#FFFFFF" d="M64.5,386.8l48.2,48.2c2.9,2.9,7.3,2.6,9.9,0l0.1-0.1c2.6-2.6,2.1-6.3-0.7-9.2l-48.2-48.2
		c-2.9-2.9-6.6-3.3-9.2-0.7l-0.1,0.1C62,379.5,61.7,384,64.5,386.8z"/>
</g>
</svg>
