<?xml version="1.0" encoding="utf-8"?>
<!-- Generator: Adobe Illustrator 17.1.0, SVG Export Plug-In . SVG Version: 6.00 Build 0)  -->
<!DOCTYPE svg PUBLIC "-//W3C//DTD SVG 1.1//EN" "http://www.w3.org/Graphics/SVG/1.1/DTD/svg11.dtd">
<svg version="1.1" xmlns="http://www.w3.org/2000/svg" xmlns:xlink="http://www.w3.org/1999/xlink" x="0px" y="0px"
	 viewBox="0 0 506.9 571" enable-background="new 0 0 506.9 571" xml:space="preserve">
<g id="Guides">
</g>
<g id="Layer_5">
	<g>
		<path fill="#E8E8E8" d="M96.4,41.7l19.3-19.3L95.4,2L76.6,20.8L69,13.2l-9.4,9.4L22.9,59.2L1.8,80.4l12.5,12.5l-7.4,7.4l10.4,10.4
			l7.4-7.4l13,13l21.1-21.1l36.6-36.6l8.9-8.9L96.4,41.7z M32.1,68.4L23.7,60l36.6-36.6l8.4,8.4L32.1,68.4z M29.5,100.5
			c-0.4,0.4-1,0.3-1.5-0.1L17.4,89.8c-0.5-0.5-0.5-1-0.1-1.5l0,0c0.4-0.4,1.2-0.5,1.6-0.1l10.6,10.6C30,99.4,29.9,100.1,29.5,100.5
			L29.5,100.5z M58,94.3l-8.6-8.6L86,49.1l8.6,8.6L58,94.3z"/>
		<path fill="#E8E8E8" d="M200.4,218.7l19.3-19.3L199.4,179l-18.8,18.8l-7.6-7.6l-9.4,9.4l-36.6,36.6l-21.1,21.1l12.5,12.5l-7.4,7.4
			l10.4,10.4l7.4-7.4l13,13l21.1-21.1l36.6-36.6l8.9-8.9L200.4,218.7z M136.1,245.4l-8.4-8.4l36.6-36.6l8.4,8.4L136.1,245.4z
			 M133.5,277.5c-0.4,0.4-1,0.3-1.5-0.1l-10.6-10.6c-0.5-0.5-0.5-1-0.1-1.5l0,0c0.4-0.4,1.2-0.5,1.6-0.1l10.6,10.6
			C134,276.4,133.9,277.1,133.5,277.5L133.5,277.5z M162,271.3l-8.6-8.6l36.6-36.6l8.6,8.6L162,271.3z"/>
		<path fill="#E8E8E8" d="M311.4,395.7l19.3-19.3L310.4,356l-18.8,18.8l-7.6-7.6l-9.4,9.4l-36.6,36.6l-21.1,21.1l12.5,12.5l-7.4,7.4
			l10.4,10.4l7.4-7.4l13,13l21.1-21.1l36.6-36.6l8.9-8.9L311.4,395.7z M247.1,422.4l-8.4-8.4l36.6-36.6l8.4,8.4L247.1,422.4z
			 M244.5,454.5c-0.4,0.4-1,0.3-1.5-0.1l-10.6-10.6c-0.5-0.5-0.5-1-0.1-1.5l0,0c0.4-0.4,1.2-0.5,1.6-0.1l10.6,10.6
			C245,453.4,244.9,454.1,244.5,454.5L244.5,454.5z M273,448.3l-8.6-8.6l36.6-36.6l8.6,8.6L273,448.3z"/>
		<path fill="#E8E8E8" d="M477.8,41.7l19.3-19.3L476.8,2l-18.8,18.8l-7.6-7.6l-9.4,9.4l-36.6,36.6l-21.1,21.1l12.5,12.5l-7.4,7.4
			l10.4,10.4l7.4-7.4l13,13l21.1-21.1l36.6-36.6l8.9-8.9L477.8,41.7z M413.4,68.4L405,60l36.6-36.6l8.4,8.4L413.4,68.4z
			 M410.8,100.5c-0.4,0.4-1,0.3-1.5-0.1l-10.6-10.6c-0.5-0.5-0.5-1-0.1-1.5l0,0c0.4-0.4,1.2-0.5,1.6-0.1l10.6,10.6
			C411.3,99.4,411.2,100.1,410.8,100.5L410.8,100.5z M439.4,94.3l-8.6-8.6l36.6-36.6l8.6,8.6L439.4,94.3z"/>
		<g>
			<path fill="#E8E8E8" d="M140.3,99.4l-14.8,14.8l20.1,20.1l14.8-14.8L140.3,99.4z M147.5,121.5c-0.4,0.4-1.1,0.5-1.6,0l-3.1-3.1
				l-3,3c-0.5,0.5-1.2,0.6-1.6,0.1l0,0c-0.4-0.4-0.3-1.1,0.1-1.6l3-3l-3.1-3.1c-0.5-0.5-0.4-1.2,0-1.6l0,0c0.4-0.4,1.1-0.5,1.6,0
				l3.1,3.1l3-3c0.5-0.5,1.2-0.6,1.6-0.1l0,0c0.4,0.4,0.3,1.1-0.1,1.6l-3,3l3.1,3.1C148,120.3,147.9,121.1,147.5,121.5L147.5,121.5z
				"/>
			<path fill="#E8E8E8" d="M81.8,157.9L102,178l41.9-41.9l-20.1-20.1L81.8,157.9z M92,158.7c0.4-0.4,1-0.3,1.4,0.1l7.6,7.6
				c0.5,0.5,0.5,1,0.1,1.4l0,0c-0.4,0.4-1.1,0.5-1.6,0l-7.6-7.6C91.5,159.8,91.5,159.1,92,158.7L92,158.7z"/>
		</g>
		<g>
			<path fill="#E8E8E8" d="M244.3,276.4l-14.8,14.8l20.1,20.1l14.8-14.8L244.3,276.4z M251.5,298.5c-0.4,0.4-1.1,0.5-1.6,0l-3.1-3.1
				l-3,3c-0.5,0.5-1.2,0.6-1.6,0.1l0,0c-0.4-0.4-0.3-1.1,0.1-1.6l3-3l-3.1-3.1c-0.5-0.5-0.4-1.2,0-1.6l0,0c0.4-0.4,1.1-0.5,1.6,0
				l3.1,3.1l3-3c0.5-0.5,1.2-0.6,1.6-0.1l0,0c0.4,0.4,0.3,1.1-0.1,1.6l-3,3l3.1,3.1C252,297.3,251.9,298.1,251.5,298.5L251.5,298.5z
				"/>
			<path fill="#E8E8E8" d="M185.8,334.9L206,355l41.9-41.9l-20.1-20.1L185.8,334.9z M196,335.7c0.4-0.4,1-0.3,1.4,0.1l7.6,7.6
				c0.5,0.5,0.5,1,0.1,1.4l0,0c-0.4,0.4-1.1,0.5-1.6,0l-7.6-7.6C195.5,336.8,195.5,336.1,196,335.7L196,335.7z"/>
		</g>
		<g>
			<path fill="#E8E8E8" d="M181.9,469.9l-14.8,14.8l20.1,20.1l14.8-14.8L181.9,469.9z M189.2,492c-0.4,0.4-1.1,0.5-1.6,0l-3.1-3.1
				l-3,3c-0.5,0.5-1.2,0.6-1.6,0.1l0,0c-0.4-0.4-0.3-1.1,0.1-1.6l3-3l-3.1-3.1c-0.5-0.5-0.4-1.2,0-1.6l0,0c0.4-0.4,1.1-0.5,1.6,0
				l3.1,3.1l3-3c0.5-0.5,1.2-0.6,1.6-0.1l0,0c0.4,0.4,0.3,1.1-0.1,1.6l-3,3l3.1,3.1C189.7,490.8,189.6,491.6,189.2,492L189.2,492z"
				/>
			<path fill="#E8E8E8" d="M123.5,528.3l20.1,20.1l41.9-41.9l-20.1-20.1L123.5,528.3z M133.6,529.2c0.4-0.4,1-0.3,1.4,0.1l7.6,7.6
				c0.5,0.5,0.5,1,0.1,1.4l0,0c-0.4,0.4-1.1,0.5-1.6,0l-7.6-7.6C133.2,530.3,133.2,529.6,133.6,529.2L133.6,529.2z"/>
		</g>
		<g>
			<path fill="#E8E8E8" d="M486.7,127.9l-14.8,14.8l20.1,20.1l14.8-14.8L486.7,127.9z M493.9,150c-0.4,0.4-1.1,0.5-1.6,0l-3.1-3.1
				l-3,3c-0.5,0.5-1.2,0.6-1.6,0.1l0,0c-0.4-0.4-0.3-1.1,0.1-1.6l3-3l-3.1-3.1c-0.5-0.5-0.4-1.2,0-1.6l0,0c0.4-0.4,1.1-0.5,1.6,0
				l3.1,3.1l3-3c0.5-0.5,1.2-0.6,1.6-0.1l0,0c0.4,0.4,0.3,1.1-0.1,1.6l-3,3l3.1,3.1C494.4,148.9,494.4,149.6,493.9,150L493.9,150z"
				/>
			<path fill="#E8E8E8" d="M428.3,186.4l20.1,20.1l41.9-41.9l-20.1-20.1L428.3,186.4z M438.4,187.2c0.4-0.4,1-0.3,1.4,0.1l7.6,7.6
				c0.5,0.5,0.5,1,0.1,1.4l0,0c-0.4,0.4-1.1,0.5-1.6,0l-7.6-7.6C438,188.3,438,187.6,438.4,187.2L438.4,187.2z"/>
		</g>
		<g>
			<g>
				<path fill="#E8E8E8" d="M282.3,15.6l7.2-7.2l-7.6-7.6l-7,7l-2.9-2.9l-3.8,3.8l-14,14l-8.1,8.1l4.7,4.7l-2.7,2.7l4.1,4.1l2.7-2.7
					l4.7,4.7l8.1-8.1l14-14l3.6-3.6L282.3,15.6z M257.6,26.1l-3.3-3.3l13.9-13.9l3.3,3.3L257.6,26.1z M256.7,38.4
					c-0.2,0.2-0.5,0.1-0.7-0.1l-4.1-4.1c-0.2-0.2-0.1-0.4,0-0.5l0,0c0.2-0.2,0.4-0.2,0.5-0.1l4.1,4.1
					C256.8,37.8,256.9,38.2,256.7,38.4L256.7,38.4z M267.4,35.9l-3.3-3.3L278,18.7l3.3,3.3L267.4,35.9z"/>
			</g>
			
				<rect x="211.4" y="34.4" transform="matrix(0.7071 0.7071 -0.7071 0.7071 120.8964 -143.1582)" fill="#E8E8E8" width="43.7" height="80"/>
		</g>
		<g>
			<g>
				<path fill="#E8E8E8" d="M386.3,192.6l7.2-7.2l-7.6-7.6l-7,7l-2.9-2.9l-3.8,3.8l-14,14l-8.1,8.1l4.7,4.7l-2.7,2.7l4.1,4.1
					l2.7-2.7l4.7,4.7l8.1-8.1l14-14l3.6-3.6L386.3,192.6z M361.6,203.1l-3.3-3.3l13.9-13.9l3.3,3.3L361.6,203.1z M360.7,215.4
					c-0.2,0.2-0.5,0.1-0.7-0.1l-4.1-4.1c-0.2-0.2-0.1-0.4,0-0.5l0,0c0.2-0.2,0.4-0.2,0.5-0.1l4.1,4.1
					C360.8,214.8,360.9,215.2,360.7,215.4L360.7,215.4z M371.4,212.9l-3.3-3.3l13.9-13.9l3.3,3.3L371.4,212.9z"/>
			</g>
			
				<rect x="315.4" y="211.4" transform="matrix(0.7071 0.7071 -0.7071 0.7071 276.5151 -164.8552)" fill="#E8E8E8" width="43.7" height="80"/>
		</g>
		<g>
			<g>
				<path fill="#E8E8E8" d="M133.3,369.6l7.2-7.2l-7.6-7.6l-7,7l-2.9-2.9l-3.8,3.8l-14,14l-8.1,8.1l4.7,4.7l-2.7,2.7l4.1,4.1
					l2.7-2.7l4.7,4.7l8.1-8.1l14-14l3.6-3.6L133.3,369.6z M108.6,380.1l-3.3-3.3l13.9-13.9l3.3,3.3L108.6,380.1z M107.7,392.4
					c-0.2,0.2-0.5,0.1-0.7-0.1l-4.1-4.1c-0.2-0.2-0.1-0.4,0-0.5l0,0c0.2-0.2,0.4-0.2,0.5-0.1l4.1,4.1
					C107.8,391.8,107.9,392.2,107.7,392.4L107.7,392.4z M118.4,389.9l-3.3-3.3l13.9-13.9l3.3,3.3L118.4,389.9z"/>
			</g>
			
				<rect x="62.4" y="388.4" transform="matrix(0.7071 0.7071 -0.7071 0.7071 327.5711 65.8849)" fill="#E8E8E8" width="43.7" height="80"/>
		</g>
		<g>
			<g>
				<path fill="#E8E8E8" d="M491.3,443.6l7.2-7.2l-7.6-7.6l-7,7l-2.9-2.9l-3.8,3.8l-14,14l-8.1,8.1l4.7,4.7l-2.7,2.7l4.1,4.1
					l2.7-2.7l4.7,4.7l8.1-8.1l14-14l3.6-3.6L491.3,443.6z M466.6,454.1l-3.3-3.3l13.9-13.9l3.3,3.3L466.6,454.1z M465.7,466.4
					c-0.2,0.2-0.5,0.1-0.7-0.1l-4.1-4.1c-0.2-0.2-0.1-0.4,0-0.5l0,0c0.2-0.2,0.4-0.2,0.5-0.1l4.1,4.1
					C465.8,465.8,465.9,466.2,465.7,466.4L465.7,466.4z M476.4,463.9l-3.3-3.3l13.9-13.9l3.3,3.3L476.4,463.9z"/>
			</g>
			
				<rect x="420.4" y="462.4" transform="matrix(0.7071 0.7071 -0.7071 0.7071 484.7527 -165.5852)" fill="#E8E8E8" width="43.7" height="80"/>
		</g>
		<path fill="#E8E8E8" d="M344.2,123.8c-0.3-0.6-3-4.3-3.2-7.2c0-0.2,0-0.4,0-0.6c0-0.1,0-0.2,0-0.2c0,0,0,0.1,0,0.2
			c-0.1-0.3-0.2-0.7-0.5-0.9l-6.6-6.6l-6.6-6.6c-0.6-0.6-1.6-0.6-2.2,0l-2.4,2.4l-0.6-0.1c-1.6-0.4-3,0.9-2.9,2.5l0,0l-3.6,3.6l0,0
			c-2.8-1.6-6.3-1.7-9.2-0.2l-0.2,0.1l-39.5,39.5l-2,2.5c2.2,6,6,11.3,10.3,15.3c4,4.3,9.3,8.2,15.4,10.4l2.6-2l39.5-39.5l0.1-0.3
			c1.5-2.9,1.4-6.4-0.2-9.2l0,0l3.6-3.6l0,0c1.6,0.1,2.9-1.3,2.5-2.9l-0.1-0.6l2.4-2.4c0,0,0.1-0.1,0.1-0.1
			c-0.3,1.5-0.9,3.9-1.5,4.9c-1,1.6-1.7,6.9,1.8,6.4C344.6,128,344.6,124.4,344.2,123.8z"/>
		<path fill="#E8E8E8" d="M448.2,300.8c-0.3-0.6-3-4.3-3.2-7.2c0-0.2,0-0.4,0-0.6c0-0.1,0-0.2,0-0.2c0,0,0,0.1,0,0.2
			c-0.1-0.3-0.2-0.7-0.5-0.9l-6.6-6.6l-6.6-6.6c-0.6-0.6-1.6-0.6-2.2,0l-2.4,2.4l-0.6-0.1c-1.6-0.4-3,0.9-2.9,2.5l0,0l-3.6,3.6l0,0
			c-2.8-1.6-6.3-1.7-9.2-0.2l-0.2,0.1l-39.5,39.5l-2,2.5c2.2,6,6,11.3,10.3,15.3c4,4.3,9.3,8.2,15.4,10.4l2.6-2l39.5-39.5l0.1-0.3
			c1.5-2.9,1.4-6.4-0.2-9.2l0,0l3.6-3.6l0,0c1.6,0.1,2.9-1.3,2.5-2.9l-0.1-0.6l2.4-2.4c0,0,0.1-0.1,0.1-0.1
			c-0.3,1.5-0.9,3.9-1.5,4.9c-1,1.6-1.7,6.9,1.8,6.4S448.6,301.4,448.2,300.8z"/>
		<path fill="#E8E8E8" d="M80.2,295.8c-0.3-0.6-3-4.3-3.2-7.2c0-0.2,0-0.4,0-0.6c0-0.1,0-0.2,0-0.2c0,0,0,0.1,0,0.2
			c-0.1-0.3-0.2-0.7-0.5-0.9l-6.6-6.6l-6.6-6.6c-0.6-0.6-1.6-0.6-2.2,0l-2.4,2.4l-0.6-0.1c-1.6-0.4-3,0.9-2.9,2.5l0,0l-3.6,3.6l0,0
			c-2.8-1.6-6.3-1.7-9.2-0.2l-0.2,0.1L2.7,321.5l-2,2.5c2.2,6,6,11.3,10.3,15.3c4,4.3,9.3,8.2,15.4,10.4l2.6-2l39.5-39.5l0.1-0.3
			c1.5-2.9,1.4-6.4-0.2-9.2l0,0l3.6-3.6l0,0c1.6,0.1,2.9-1.3,2.5-2.9l-0.1-0.6l2.4-2.4c0,0,0.1-0.1,0.1-0.1
			c-0.3,1.5-0.9,3.9-1.5,4.9c-1,1.6-1.7,6.9,1.8,6.4C80.6,300,80.6,296.4,80.2,295.8z"/>
		<path fill="#E8E8E8" d="M390.2,439.8c-0.3-0.6-3-4.3-3.2-7.2c0-0.2,0-0.4,0-0.6c0-0.1,0-0.2,0-0.2c0,0,0,0.1,0,0.2
			c-0.1-0.3-0.2-0.7-0.5-0.9l-6.6-6.6l-6.6-6.6c-0.6-0.6-1.6-0.6-2.2,0l-2.4,2.4l-0.6-0.1c-1.6-0.4-3,0.9-2.9,2.5l0,0l-3.6,3.6l0,0
			c-2.8-1.6-6.3-1.7-9.2-0.2l-0.2,0.1l-39.5,39.5l-2,2.5c2.2,6,6,11.3,10.3,15.3c4,4.3,9.3,8.2,15.4,10.4l2.6-2l39.5-39.5l0.1-0.3
			c1.5-2.9,1.4-6.4-0.2-9.2l0,0l3.6-3.6l0,0c1.6,0.1,2.9-1.3,2.5-2.9l-0.1-0.6l2.4-2.4c0,0,0.1-0.1,0.1-0.1
			c-0.3,1.5-0.9,3.9-1.5,4.9c-1,1.6-1.7,6.9,1.8,6.4S390.6,440.4,390.2,439.8z"/>
	</g>
</g>
<g id="Layer_6" display="none">
	<rect x="0.5" y="0.5" display="inline" fill="#E1E1E1" stroke="#967E7E" stroke-miterlimit="10" width="501" height="570"/>
</g>
</svg>
